#!OML:ASF E:\emotionWalksFemale\Project 1\Capture day 1\Session 1\Female1.ASF
:FULLY-SPECIFIED
:DEGREES
1588
root 9.8041 15.4145 -2.08441 0.000927634 -12.7339 355.521
lowerback 5.93142 -0.0891744 5.87507
upperback -5.14648 0.584535 1.63841
thorax -8.75985 -0.0250658 -1.63394
lowerneck 0.621081 5.02615 0.724742
upperneck -3.35938 6.70902 -0.16321
head -1.10023 3.34204 -0.243088
rclavicle -6.4605e-015 -1.72943e-014
rhumerus -34.2622 -25.2909 -55.1254
rradius 43.5736
rwrist -0.00576247
rhand 6.47038 -53.8671
rfingers 7.12502
rthumb 31.7714 278.881
lclavicle -6.4605e-015 -1.72943e-014
lhumerus -51.0476 17.2603 69.1917
lradius 34.3666
lwrist -17.0764
lhand 0.0937841 -33.3389
lfingers 7.12502
lthumb 25.6802 -5.05105
rfemur 25.2632 11.774 35.5128
rtibia 3.67982
rfoot 0.527541 -13.0724
rtoes -0.864858
lfemur -24.7963 -16.7641 -13.1257
ltibia 24.7637
lfoot -24.8226 28.0857
ltoes -2.40222
1589
root 9.8141 15.4276 -1.9023 -0.0826503 -12.7852 355.935
lowerback 5.6785 -0.0435336 5.63168
upperback -5.29164 0.604088 1.57871
thorax -8.76643 -0.00529291 -1.56218
lowerneck 0.772248 4.92812 0.938914
upperneck -3.0478 6.57253 -0.534607
head -1.00926 3.27777 -0.386602
rclavicle 1.39149e-015 3.97569e-016
rhumerus -35.1102 -25.5198 -54.2229
rradius 43.5095
rwrist -0.234513
rhand 6.62258 -54.2569
rfingers 7.12502
rthumb 31.9164 278.52
lclavicle 1.39149e-015 3.97569e-016
lhumerus -51.2093 17.2185 68.9926
lradius 34.3517
lwrist -16.9891
lhand -0.0469592 -33.0954
lfingers 7.12502
lthumb 25.5454 -4.78819
rfemur 24.4769 11.4239 34.7844
rtibia 6.30022
rfoot 0.710527 -12.7655
rtoes -3.44572
lfemur -24.1096 -16.5775 -14.0353
ltibia 24.7742
lfoot -23.9586 27.5083
ltoes -0.609825
1590
root 9.82588 15.4446 -1.71891 -0.272592 -12.6356 356.462
lowerback 5.58803 -0.0971062 5.30527
upperback -5.45575 0.493997 1.48966
thorax -8.89817 -0.0473958 -1.45854
lowerneck 0.826754 4.85535 1.06962
upperneck -2.71928 6.4712 -0.830538
head -0.903047 3.2307 -0.491187
rclavicle -3.15074e-014 1.66979e-014
rhumerus -35.8956 -25.6622 -53.4063
rradius 43.2966
rwrist -0.606964
rhand 6.8448 -54.4902
rfingers 7.12502
rthumb 32.128 278.33
lclavicle -3.15074e-014 1.66979e-014
lhumerus -51.492 17.2666 68.7207
lradius 34.3794
lwrist -16.9209
lhand -0.270891 -32.7656
lfingers 7.12502
lthumb 25.3309 -4.42781
rfemur 24.0124 10.8688 33.9261
rtibia 8.49082
rfoot 0.881869 -12.2109
rtoes -3.46731
lfemur -23.3842 -16.6811 -15.0342
ltibia 24.7509
lfoot -23.8186 26.8877
ltoes 3.11265
1591
root 9.84102 15.4628 -1.53836 -0.423681 -12.3829 356.81
lowerback 5.55206 -0.208182 5.21979
upperback -5.66836 0.335434 1.39864
thorax -9.11991 -0.130997 -1.48461
lowerneck 0.75306 4.8748 0.967497
upperneck -2.17811 6.50021 -0.650325
head -0.731933 3.24577 -0.407468
rclavicle 7.95139e-015 -2.62396e-014
rhumerus -36.8311 -25.8649 -52.5254
rradius 42.948
rwrist -0.664264
rhand 7.43904 -54.717
rfingers 7.12502
rthumb 32.6935 278.219
lclavicle 7.95139e-015 -2.62396e-014
lhumerus -51.893 17.3119 68.3052
lradius 34.4759
lwrist -16.9985
lhand -0.632261 -32.8599
lfingers 7.12502
lthumb 24.9846 -4.47357
rfemur 23.4318 10.2159 33.2193
rtibia 10.7437
rfoot 1.13085 -11.671
rtoes -1.77171
lfemur -22.7255 -16.8539 -15.7848
ltibia 24.6643
lfoot -23.5173 26.5185
ltoes 5.66442
1592
root 9.85611 15.4797 -1.36232 -0.466694 -12.2453 357.098
lowerback 5.62057 -0.241543 5.26048
upperback -6.02177 0.30469 1.29249
thorax -9.55295 -0.168591 -1.61287
lowerneck 0.91704 4.85794 0.939271
upperneck -1.6603 6.48251 -0.525777
head -0.604859 3.2379 -0.360047
rclavicle -1.1281e-014 1.47101e-014
rhumerus -38.119 -26.0845 -51.413
rradius 42.7169
rwrist -0.632713
rhand 8.17201 -54.8454
rfingers 7.12502
rthumb 33.3906 278.238
lclavicle -1.1281e-014 1.47101e-014
lhumerus -52.3326 17.1634 67.8998
lradius 34.512
lwrist -17.035
lhand -0.796429 -33.266
lfingers 7.12502
lthumb 24.8273 -4.85785
rfemur 22.5889 9.72812 32.5602
rtibia 13.1631
rfoot 1.68317 -11.3524
rtoes -1.10026
lfemur -22.0726 -16.5807 -16.5014
ltibia 24.4625
lfoot -22.407 26.3027
ltoes 5.83281
